<svg width="20" height="20" viewBox="0 0 20 20" fill="none" xmlns="http://www.w3.org/2000/svg">
<path d="M10.3869 12.7187L14.7705 8.32734C14.8432 8.25521 14.9009 8.1694 14.9403 8.07485C14.9797 7.98031 15 7.8789 15 7.77648C15 7.67405 14.9797 7.57264 14.9403 7.4781C14.9009 7.38355 14.8432 7.29774 14.7705 7.22561C14.6251 7.08111 14.4285 7 14.2235 7C14.0185 7 13.8219 7.08111 13.6765 7.22561L9.79723 11.0661L5.95672 7.22561C5.81135 7.08111 5.61471 7 5.40974 7C5.20477 7 5.00812 7.08111 4.86276 7.22561C4.78945 7.29747 4.73113 7.38316 4.69117 7.47772C4.65122 7.57228 4.63043 7.67382 4.63 7.77648C4.63043 7.87913 4.65122 7.98067 4.69117 8.07523C4.73113 8.16979 4.78945 8.25548 4.86276 8.32734L9.24637 12.7187C9.31902 12.7975 9.4072 12.8603 9.50535 12.9033C9.60349 12.9463 9.70948 12.9685 9.81663 12.9685C9.92378 12.9685 10.0298 12.9463 10.1279 12.9033C10.2261 12.8603 10.3142 12.7975 10.3869 12.7187Z" fill="#5F6165"/>
</svg>
