<svg width="24" height="24" viewBox="0 0 24 24" fill="none" xmlns="http://www.w3.org/2000/svg">
<path d="M8.62921 12.0542L14.2892 17.7042C14.3822 17.7979 14.4928 17.8723 14.6146 17.9231C14.7365 17.9739 14.8672 18 14.9992 18C15.1312 18 15.2619 17.9739 15.3838 17.9231C15.5056 17.8723 15.6162 17.7979 15.7092 17.7042C15.8955 17.5168 16 17.2634 16 16.9992C16 16.735 15.8955 16.4816 15.7092 16.2942L10.7592 11.2942L15.7092 6.3442C15.8955 6.15684 16 5.90339 16 5.6392C16 5.37502 15.8955 5.12156 15.7092 4.9342C15.6166 4.83971 15.5061 4.76454 15.3843 4.71305C15.2624 4.66155 15.1315 4.63475 14.9992 4.6342C14.8669 4.63475 14.736 4.66155 14.6141 4.71305C14.4923 4.76454 14.3818 4.83971 14.2892 4.9342L8.62921 10.5842C8.5277 10.6778 8.4467 10.7915 8.39129 10.918C8.33588 11.0445 8.30728 11.1811 8.30728 11.3192C8.30728 11.4573 8.33588 11.5939 8.39129 11.7204C8.44669 11.8469 8.5277 11.9606 8.62921 12.0542Z" fill="#72767C"/>
</svg>
