<svg width="30" height="30" viewBox="0 0 30 30" fill="none" xmlns="http://www.w3.org/2000/svg">
<path d="M14.8672 18.4258C14.0786 18.4258 13.3395 18.1793 12.6987 17.7358L14.8672 19.6085L17.0356 17.7358C16.3457 18.1795 15.6065 18.4258 14.8672 18.4258Z" fill="#72767C"/>
<path d="M24.3293 21.8252C24.2308 20.8888 23.5901 20.1497 22.703 19.8539L18.6125 18.6218L17.8241 21.3818C17.6269 22.0717 16.8385 22.3182 16.2964 21.9239L14.8672 20.8888L13.438 21.9237C12.8959 22.318 12.1075 22.0717 11.9103 21.3818L11.1217 18.622L7.03125 19.8541C6.14417 20.1006 5.50355 20.889 5.4049 21.8254L5.01077 25.6692C4.91228 26.3592 5.50355 26.9997 6.1935 26.9997H23.4915C24.2308 26.9997 24.7729 26.3591 24.7236 25.6692L24.3293 21.8252Z" fill="#72767C"/>
<path d="M17.5285 9.60366C16.6414 9.94863 15.7543 10.0964 14.9166 10.0964C13.3395 10.0964 12.2059 9.50501 11.6638 9.16003C10.5796 10.5892 10.5796 13.5954 10.5796 13.6447C11.2203 15.8623 12.8959 17.9322 14.8672 17.9322C16.8385 17.9322 18.514 15.813 19.1548 13.5954C19.3519 12.0677 17.9227 10.2935 17.5284 9.60357L17.5285 9.60366Z" fill="#72767C"/>
<path d="M19.7949 8.96303C19.7456 7.82945 19.3022 6.79457 18.5629 5.95682C17.6265 5.56252 16.5916 5.11907 15.9017 4.82324C15.9017 4.82324 11.6141 3.49271 10.6285 6.94237C10.5791 6.9917 10.5791 6.9917 10.53 6.9917C10.4315 6.9917 10.2835 7.04104 10.0865 7.09019C9.79089 7.68162 9.64308 8.27292 9.59375 8.96287C9.7909 9.16002 9.93872 9.45565 9.93872 9.75147L9.93854 12.5114C9.93854 12.6592 9.88921 12.7579 9.88921 12.9057C10.037 13.2013 10.1849 13.4971 10.3327 13.6943C10.3327 13.6943 9.69204 10.0475 11.3676 8.56896C11.3676 8.56896 13.8317 10.6881 17.725 9.06174C17.725 9.06174 19.5977 11.4765 19.2527 13.6943C19.2527 13.6943 19.4005 13.4478 19.4992 13.0536C19.4007 12.9058 19.3514 12.7087 19.3514 12.5115V9.80093C19.45 9.45579 19.5978 9.16017 19.795 8.963L19.7949 8.96303Z" fill="#72767C"/>
<path d="M11.5649 18.4747L12.3535 21.2345C12.452 21.5795 12.8463 21.6779 13.0928 21.481L14.8177 20.2489L12.2057 17.9819L11.5649 18.4747Z" fill="#72767C"/>
<path d="M17.3804 21.2837L18.169 18.5239L17.479 18.0311L14.8669 20.2981L16.5918 21.5302C16.8876 21.7273 17.2817 21.5793 17.3804 21.2837V21.2837Z" fill="#72767C"/>
<path d="M8.75617 13.103H8.90399C9.24895 13.103 9.54461 12.8074 9.54461 12.4624V9.75179C9.54461 9.50531 9.39679 9.30834 9.19964 9.20968C9.24897 6.15415 11.7131 3.69008 14.7685 3.69008C17.8241 3.69008 20.3374 6.15419 20.3374 9.20968C20.1403 9.30817 19.9924 9.50532 19.9924 9.75179L19.9926 12.5115C19.9926 12.8565 20.2883 13.1522 20.6332 13.1522H20.7811C21.3725 13.1522 21.8653 12.6594 21.8653 12.0679V10.2938C21.8653 9.80098 21.5203 9.40668 21.0767 9.25883C21.0274 5.80917 18.2183 3 14.7686 3C11.3189 3 8.50976 5.80908 8.46048 9.25883C8.01703 9.40665 7.67188 9.80094 7.67188 10.2938L7.67205 12.0188C7.67205 12.6101 8.16482 13.103 8.7563 13.103H8.75617Z" fill="#72767C"/>
</svg>
