<svg width="20" height="20" viewBox="0 0 20 20" fill="none" xmlns="http://www.w3.org/2000/svg">
<path d="M12.1668 2C10.5028 2 9.09485 5.66232 9.09485 10C9.09485 14.3377 10.5028 18 12.1668 18C13.8309 18 15.2352 14.3377 15.2352 10C15.2352 5.66232 13.8308 2 12.1668 2ZM12.5473 15.6997C12.1598 15.6997 11.5909 15.4507 11.1073 14.2738V14.2739C11.0331 14.0939 10.9691 13.9099 10.9153 13.7228C10.9103 13.7139 10.9066 13.7043 10.9047 13.6943C10.5642 12.4832 10.399 11.2297 10.414 9.97164C10.399 8.71248 10.5642 7.45772 10.9047 6.24531C10.9083 6.23817 10.9083 6.22757 10.9118 6.21686C10.9723 6.02484 11.0362 5.83996 11.1039 5.6728C11.591 4.48874 12.1598 4.24353 12.5474 4.24353C13.9341 4.24353 14.6843 7.1946 14.6843 9.97153C14.6842 12.7484 13.934 15.6995 12.5473 15.6995L12.5473 15.6997Z" fill="#444444"/>
<path d="M8.13836 16.5317L7.01123 16.1904H7.01135C7.37624 16.819 7.91613 17.328 8.56503 17.6553C8.84217 17.774 9.13204 17.8599 9.42909 17.9112C8.9098 17.5436 8.47076 17.0743 8.13836 16.5317L8.13836 16.5317Z" fill="#444444"/>
<path d="M7.76156 15.8597C7.56989 15.4655 7.40715 15.0579 7.27443 14.6401L6.16516 14.2881H6.16504C6.29254 14.7108 6.45183 15.1232 6.64159 15.5219L7.76156 15.8597Z" fill="#444444"/>
<path d="M5.75293 12.4425C5.81698 12.8727 5.89876 13.2851 5.99472 13.6763L7.09698 14.0248C6.99746 13.6479 6.9121 13.2496 6.84448 12.8373L5.75293 12.4425Z" fill="#444444"/>
<path d="M6.75519 12.2399C6.709 11.8666 6.67697 11.4791 6.65209 11.0808L5.58899 10.6221C5.60316 11.0416 5.63518 11.4505 5.67792 11.8487L6.75519 12.2399Z" fill="#444444"/>
<path d="M5.5752 9.97164C5.5752 9.99295 5.57877 10.0143 5.57877 10.0357L6.6277 10.4908C6.62412 10.3167 6.62055 10.146 6.62055 9.97166C6.62055 9.7263 6.6277 9.49523 6.63472 9.26059L5.61782 8.81262C5.59294 9.18239 5.5752 9.5663 5.5752 9.97166L5.5752 9.97164Z" fill="#444444"/>
<path d="M6.79112 7.4683L5.84885 6.9314C5.76707 7.34033 5.70659 7.78116 5.6604 8.25056L6.6666 8.6914C6.69517 8.26473 6.73422 7.85236 6.79112 7.4683H6.79112Z" fill="#444444"/>
<path d="M6.36436 5.12549C6.20555 5.53716 6.07377 5.95883 5.96973 6.38763L6.89056 6.91023V6.91035C6.97283 6.45976 7.08211 6.01451 7.2177 5.57702L6.36436 5.12549Z" fill="#444444"/>
<path d="M10.8406 2.04248C10.6297 2.08998 10.4246 2.16034 10.229 2.25236C9.76628 2.48081 9.35772 2.80569 9.03083 3.20523L9.14821 3.18035C9.21714 3.16285 9.29024 3.17416 9.35059 3.21178C9.41095 3.24928 9.45345 3.30987 9.46821 3.37939C9.48476 3.44832 9.47297 3.52094 9.43559 3.58106C9.39821 3.6413 9.33821 3.68392 9.26905 3.69939L8.55441 3.86654C8.32667 4.24831 8.13274 4.64929 7.97487 5.06474L8.49047 4.93676H8.49035C8.6325 4.90462 8.77416 4.992 8.80904 5.13355C8.84392 5.27498 8.75916 5.41831 8.61833 5.4558L7.76856 5.66199V5.66211C7.63701 6.08628 7.52785 6.51712 7.44155 6.95272L8.10642 6.76784C8.17511 6.74593 8.24975 6.75272 8.31333 6.78677C8.37678 6.82081 8.42392 6.87927 8.44356 6.94855C8.46332 7.01796 8.45416 7.09236 8.41809 7.15474C8.38201 7.21724 8.32213 7.26236 8.25213 7.27986L7.33834 7.53581C7.27786 7.93045 7.23167 8.32868 7.20322 8.71987L7.89655 8.53857H7.89667C7.96595 8.51761 8.04084 8.52571 8.10405 8.56118C8.16726 8.59654 8.21334 8.65619 8.23167 8.72619C8.25012 8.79631 8.23917 8.87083 8.20143 8.93261C8.16369 8.99452 8.10238 9.03833 8.03167 9.05404L7.16761 9.28154C7.15689 9.51618 7.15344 9.74737 7.15344 9.97131C7.15344 10.1705 7.16059 10.3588 7.16416 10.5472L7.86105 10.3446V10.3447C8.00201 10.3074 8.14701 10.3895 8.18761 10.5295C8.2282 10.6696 8.14951 10.8165 8.01035 10.8603L7.18904 11.0985C7.21392 11.5288 7.24952 11.9411 7.30285 12.3288L8.02465 12.1403C8.16703 12.1029 8.31263 12.1882 8.35002 12.3306C8.38728 12.4728 8.30216 12.6185 8.15978 12.6558L7.38824 12.8584V12.8585C7.46074 13.2793 7.55574 13.6959 7.67265 14.1065L8.24157 13.9537C8.38491 13.9163 8.53134 14.0022 8.56858 14.1457C8.60597 14.289 8.52001 14.4354 8.37668 14.4727L7.83262 14.615C7.99714 15.0941 8.20534 15.5571 8.45488 15.9981L8.87082 15.8878C8.9388 15.869 9.01142 15.8784 9.07225 15.9139C9.1332 15.9494 9.17725 16.0079 9.19439 16.0763C9.23261 16.2186 9.14832 16.3651 9.00594 16.4034L8.75701 16.4674V16.4673C9.10188 16.9959 9.58023 17.424 10.1437 17.7083C10.3634 17.8076 10.592 17.8861 10.8264 17.9429C9.4895 16.7091 8.56154 13.6586 8.56154 9.99992C8.56154 6.32693 9.49667 3.26925 10.8406 2.04259L10.8406 2.04248Z" fill="#444444"/>
<path d="M8.32018 3.27275C8.65529 2.7855 9.07565 2.36276 9.56101 2.02478C9.2465 2.06014 8.94006 2.14788 8.65435 2.2843C8.3466 2.43335 8.06351 2.62884 7.81531 2.86396L8.32018 3.27275Z" fill="#444444"/>
<path d="M8.02839 3.72074L7.44873 3.25146C7.09743 3.67194 6.80337 4.13695 6.5741 4.63457L7.3954 5.0648C7.56421 4.59815 7.77611 4.14826 8.02839 3.72074Z" fill="#444444"/>
<path d="M6.30741 16.0516L6.06562 16.1156C5.92229 16.1519 5.77669 16.0652 5.74026 15.9218C5.70395 15.7785 5.79073 15.6328 5.93407 15.5965L6.06561 15.5644C5.86359 15.1067 5.6949 14.6349 5.56075 14.1529L5.19454 14.2454C5.05216 14.2817 4.90728 14.1958 4.87098 14.0534C4.83467 13.911 4.92062 13.7661 5.063 13.7298L5.4292 13.6373C5.34027 13.2355 5.26206 12.816 5.20171 12.3822L4.82837 12.4888V12.489C4.75968 12.5109 4.68504 12.5041 4.62147 12.47C4.5579 12.4359 4.51087 12.3775 4.49111 12.3081C4.47135 12.2388 4.48051 12.1644 4.51671 12.1021C4.55278 12.0396 4.61254 11.9944 4.68254 11.9769L5.14124 11.8454C5.09862 11.4294 5.06659 10.9992 5.05588 10.5583L4.69672 10.6472H4.69684C4.55445 10.6835 4.40957 10.5975 4.37327 10.4552C4.33696 10.3128 4.42291 10.1679 4.56517 10.1316L5.04517 10.0108C5.04517 9.99659 5.0416 9.98231 5.0416 9.97159C5.0416 9.54849 5.05934 9.15029 5.08422 8.76266L4.73576 8.85159H4.73588C4.66754 8.86862 4.59516 8.85766 4.5348 8.82135C4.47456 8.78504 4.43111 8.72623 4.41409 8.65778C4.37873 8.5154 4.46552 8.37135 4.6079 8.33598L5.12706 8.20444C5.17325 7.7493 5.2373 7.32264 5.31551 6.9173L5.03111 7.00623H5.03099C4.89159 7.05147 4.74194 6.97504 4.69682 6.83564C4.65158 6.69623 4.72801 6.54659 4.86742 6.50134L5.44695 6.31289C5.54172 5.91539 5.65921 5.52362 5.79898 5.13956L5.54303 5.20361C5.40065 5.2398 5.25589 5.15385 5.21947 5.01158C5.18316 4.8673 5.27066 4.72087 5.41506 4.68445L6.04793 4.52445C6.23876 4.09934 6.46972 3.69337 6.7377 3.31208C6.61413 3.31577 6.5046 3.23291 6.4746 3.11291C6.44008 2.9697 6.52734 2.82541 6.6702 2.78934L7.29246 2.64006H7.29234C7.51746 2.40518 7.76923 2.19755 8.04258 2.02136C7.70804 2.04958 7.38152 2.13874 7.07901 2.28446C5.58924 2.98852 4 5.37779 4 9.97147C4 13.8185 5.17333 16.8338 6.99023 17.6551C7.29725 17.786 7.61987 17.8768 7.95023 17.9254C7.25023 17.4529 6.68428 16.8074 6.30751 16.0516L6.30741 16.0516Z" fill="#444444"/>
<path d="M12.5473 4.77691C12.2309 4.77691 11.886 5.17512 11.598 5.87561C11.5447 6.00359 11.4949 6.14228 11.4487 6.28454L11.4486 6.28442C11.6849 6.73583 11.8812 7.20694 12.0353 7.69251C12.2324 8.43476 12.3292 9.20002 12.3234 9.96799C12.3337 10.8008 12.2174 11.6305 11.9784 12.4285C11.8305 12.8492 11.6535 13.2591 11.4486 13.6551C11.4948 13.801 11.5481 13.9395 11.6015 14.0711C11.8859 14.768 12.2307 15.1662 12.5473 15.1662C13.3047 15.1662 14.1509 13.0329 14.1509 9.97152C14.1509 6.91019 13.3047 4.77686 12.5473 4.77686L12.5473 4.77691Z" fill="#444444"/>
<path d="M11.7905 9.96822C11.797 9.24941 11.7062 8.53285 11.5202 7.83845C11.444 7.5794 11.3489 7.3263 11.2357 7.08105C11.039 8.032 10.9425 9.00081 10.9477 9.97178C10.9423 10.9415 11.0388 11.9093 11.2357 12.8589C11.3246 12.6653 11.403 12.4671 11.4705 12.2651C11.6939 11.5203 11.8018 10.7457 11.7905 9.96822Z" fill="#444444"/>
</svg>
