<svg width="24" height="24" viewBox="0 0 24 24" fill="none" xmlns="http://www.w3.org/2000/svg">
<path d="M13.7709 8.23125C13.7048 8.15798 13.6261 8.09982 13.5394 8.06012C13.4527 8.02043 13.3597 8 13.2657 8C13.1718 8 13.0788 8.02043 12.9921 8.06012C12.9054 8.09982 12.8267 8.15798 12.7605 8.23125L7.45949 14.0634L5.23235 11.6086C5.16367 11.5357 5.08259 11.4784 4.99375 11.4399C4.90491 11.4014 4.81004 11.3826 4.71457 11.3844C4.61909 11.3862 4.52488 11.4087 4.4373 11.4505C4.34972 11.4923 4.2705 11.5527 4.20416 11.6281C4.13782 11.7036 4.08565 11.7927 4.05064 11.8903C4.01563 11.9879 3.99846 12.0921 4.00011 12.197C4.00176 12.3019 4.0222 12.4054 4.06027 12.5017C4.09833 12.5979 4.15327 12.6849 4.22195 12.7578L6.95429 15.7599C7.02044 15.8332 7.09914 15.8913 7.18585 15.931C7.27256 15.9707 7.36556 15.9911 7.45949 15.9911C7.55343 15.9911 7.64643 15.9707 7.73314 15.931C7.81985 15.8913 7.89855 15.8332 7.96469 15.7599L13.7709 9.38049C13.8432 9.30728 13.9008 9.21842 13.9402 9.11953C13.9796 9.02063 14 8.91384 14 8.80587C14 8.6979 13.9796 8.59111 13.9402 8.49221C13.9008 8.39331 13.8432 8.30446 13.7709 8.23125Z" fill="#41D37E"/>
<path d="M19.7709 8.23125C19.7048 8.15798 19.6261 8.09982 19.5394 8.06012C19.4527 8.02043 19.3597 8 19.2657 8C19.1718 8 19.0788 8.02043 18.9921 8.06012C18.9054 8.09982 18.8267 8.15798 18.7605 8.23125L13.4595 14.0634L11.2323 11.6086C11.1637 11.5357 11.0826 11.4784 10.9938 11.4399C10.9049 11.4014 10.81 11.3826 10.7146 11.3844C10.6191 11.3862 10.5249 11.4087 10.4373 11.4505C10.3497 11.4923 10.2705 11.5527 10.2042 11.6281C10.1378 11.7036 10.0856 11.7927 10.0506 11.8903C10.0156 11.9879 9.99846 12.0921 10.0001 12.197C10.0018 12.3019 10.0222 12.4054 10.0603 12.5017C10.0983 12.5979 10.1533 12.6849 10.2219 12.7578L12.9543 15.7599C13.0204 15.8332 13.0991 15.8913 13.1858 15.931C13.2726 15.9707 13.3656 15.9911 13.4595 15.9911C13.5534 15.9911 13.6464 15.9707 13.7331 15.931C13.8198 15.8913 13.8985 15.8332 13.9647 15.7599L19.7709 9.38049C19.8432 9.30728 19.9008 9.21842 19.9402 9.11953C19.9796 9.02063 20 8.91384 20 8.80587C20 8.6979 19.9796 8.59111 19.9402 8.49221C19.9008 8.39331 19.8432 8.30446 19.7709 8.23125Z" fill="#41D37E"/>
</svg>
