<svg width="24" height="24" viewBox="0 0 24 24" fill="none" xmlns="http://www.w3.org/2000/svg">
<path d="M21.9165 11.6C19.8972 6.91 16.0986 4 12 4C7.90143 4 4.10275 6.91 2.08346 11.6C2.02841 11.7262 2 11.8623 2 12C2 12.1377 2.02841 12.2738 2.08346 12.4C4.10275 17.09 7.90143 20 12 20C16.0986 20 19.8972 17.09 21.9165 12.4C21.9716 12.2738 22 12.1377 22 12C22 11.8623 21.9716 11.7262 21.9165 11.6ZM12 18C8.8311 18 5.83215 15.71 4.10275 12C5.83215 8.29 8.8311 6 12 6C15.1689 6 18.1679 8.29 19.8972 12C18.1679 15.71 15.1689 18 12 18ZM12 8C11.2092 8 10.4361 8.2346 9.77849 8.67412C9.12093 9.11365 8.60841 9.73836 8.30577 10.4693C8.00312 11.2002 7.92394 12.0044 8.07823 12.7804C8.23251 13.5563 8.61334 14.269 9.17256 14.8284C9.73177 15.3878 10.4443 15.7688 11.2199 15.9231C11.9956 16.0775 12.7996 15.9983 13.5302 15.6955C14.2609 15.3928 14.8853 14.8801 15.3247 14.2223C15.7641 13.5645 15.9986 12.7911 15.9986 12C15.9986 10.9391 15.5773 9.92172 14.8274 9.17157C14.0776 8.42143 13.0605 8 12 8ZM12 14C11.6046 14 11.218 13.8827 10.8892 13.6629C10.5605 13.4432 10.3042 13.1308 10.1529 12.7654C10.0016 12.3999 9.96197 11.9978 10.0391 11.6098C10.1163 11.2219 10.3067 10.8655 10.5863 10.5858C10.8659 10.3061 11.2221 10.1156 11.61 10.0384C11.9978 9.96126 12.3998 10.0009 12.7651 10.1522C13.1304 10.3036 13.4427 10.56 13.6624 10.8889C13.882 11.2178 13.9993 11.6044 13.9993 12C13.9993 12.5304 13.7887 13.0391 13.4137 13.4142C13.0388 13.7893 12.5302 14 12 14Z" fill="#777E91"/>
</svg>
