<svg width="30" height="30" viewBox="0 0 30 30" fill="none" xmlns="http://www.w3.org/2000/svg">
<path fill-rule="evenodd" clip-rule="evenodd" d="M14.5116 3V4.56587C13.2674 4.89735 11.8453 5.84341 11.8258 6.63323C11.82 6.86556 12.0129 7.05287 12.2455 7.05287H18.4312C18.6637 7.05287 18.8566 6.86556 18.8509 6.63323C18.8313 5.84341 17.4093 4.89735 16.165 4.56587V3H14.5116Z" fill="#72767C"/>
<path fill-rule="evenodd" clip-rule="evenodd" d="M17.0412 8.78569C17.0416 8.97394 16.9672 9.15456 16.8344 9.28775C16.7016 9.42093 16.5211 9.49571 16.3329 9.49571C16.1448 9.49571 15.9644 9.42093 15.8316 9.28775C15.6988 9.15456 15.6244 8.97394 15.6248 8.78569C15.6244 8.59764 15.6988 8.41702 15.8316 8.28383C15.9644 8.15065 16.1449 8.07568 16.3329 8.07568C16.5211 8.07568 16.7016 8.15065 16.8344 8.28383C16.9672 8.41702 17.0416 8.59764 17.0412 8.78569Z" fill="#72767C"/>
<path fill-rule="evenodd" clip-rule="evenodd" d="M19.0309 8.78569C19.0312 8.97394 18.9568 9.15456 18.824 9.28775C18.6912 9.42093 18.5108 9.49571 18.3225 9.49571C18.1345 9.49571 17.954 9.42093 17.8212 9.28775C17.6884 9.15456 17.614 8.97394 17.6144 8.78569C17.614 8.59764 17.6884 8.41702 17.8212 8.28383C17.954 8.15065 18.1345 8.07568 18.3225 8.07568C18.5108 8.07568 18.6912 8.15065 18.824 8.28383C18.9568 8.41702 19.0312 8.59764 19.0309 8.78569Z" fill="#72767C"/>
<path fill-rule="evenodd" clip-rule="evenodd" d="M19.3779 11.1576C19.3783 11.3459 19.3039 11.5265 19.171 11.6597C19.0382 11.7929 18.8578 11.8677 18.6696 11.8677C18.4815 11.8677 18.3011 11.7929 18.1683 11.6597C18.0355 11.5265 17.9611 11.3459 17.9614 11.1576C17.9611 10.9696 18.0355 10.789 18.1683 10.6558C18.3011 10.5226 18.4815 10.4476 18.6696 10.4476C18.8578 10.4476 19.0382 10.5226 19.171 10.6558C19.3038 10.789 19.3783 10.9696 19.3779 11.1576Z" fill="#72767C"/>
<path fill-rule="evenodd" clip-rule="evenodd" d="M19.7251 13.5296C19.7254 13.7178 19.651 13.8985 19.5182 14.0316C19.3854 14.1648 19.205 14.2396 19.0167 14.2396C18.8287 14.2396 18.6482 14.1648 18.5154 14.0316C18.3826 13.8985 18.3082 13.7178 18.3086 13.5296C18.3082 13.3415 18.3826 13.1609 18.5154 13.0277C18.6483 12.8945 18.8287 12.8196 19.0167 12.8196C19.205 12.8196 19.3854 12.8945 19.5182 13.0277C19.651 13.1609 19.7254 13.3415 19.7251 13.5296Z" fill="#72767C"/>
<path fill-rule="evenodd" clip-rule="evenodd" d="M17.157 11.3578C17.1573 11.5461 17.0829 11.7267 16.9501 11.8599C16.8173 11.9931 16.6369 12.0679 16.4486 12.0679C16.2606 12.0679 16.0801 11.9931 15.9473 11.8599C15.8145 11.7267 15.7401 11.5461 15.7405 11.3578C15.7401 11.1698 15.8145 10.9892 15.9473 10.856C16.0801 10.7228 16.2606 10.6478 16.4486 10.6478C16.6369 10.6478 16.8173 10.7228 16.9501 10.856C17.0829 10.9892 17.1573 11.1698 17.157 11.3578Z" fill="#72767C"/>
<path fill-rule="evenodd" clip-rule="evenodd" d="M17.2727 13.9296C17.273 14.1179 17.1986 14.2985 17.0658 14.4317C16.933 14.5649 16.7526 14.6396 16.5643 14.6396C16.3763 14.6396 16.1958 14.5649 16.0631 14.4317C15.9303 14.2985 15.8558 14.1179 15.8562 13.9296C15.8558 13.7416 15.9302 13.5609 16.0631 13.4278C16.1959 13.2946 16.3763 13.2196 16.5643 13.2196C16.7526 13.2196 16.933 13.2946 17.0658 13.4278C17.1986 13.5609 17.273 13.7416 17.2727 13.9296Z" fill="#72767C"/>
<path fill-rule="evenodd" clip-rule="evenodd" d="M13.6355 8.78569C13.6351 8.97394 13.7095 9.15456 13.8423 9.28775C13.9752 9.42093 14.1556 9.49571 14.3438 9.49571C14.5319 9.49571 14.7123 9.42093 14.8451 9.28775C14.9779 9.15456 15.0523 8.97394 15.052 8.78569C15.0523 8.59764 14.9779 8.41702 14.8451 8.28383C14.7123 8.15065 14.5319 8.07568 14.3438 8.07568C14.1556 8.07568 13.9752 8.15065 13.8423 8.28383C13.7095 8.41702 13.6351 8.59764 13.6355 8.78569Z" fill="#72767C"/>
<path fill-rule="evenodd" clip-rule="evenodd" d="M11.6459 8.78569C11.6455 8.97394 11.7199 9.15456 11.8527 9.28775C11.9855 9.42093 12.166 9.49571 12.3542 9.49571C12.5423 9.49571 12.7227 9.42093 12.8555 9.28775C12.9883 9.15456 13.0627 8.97394 13.0623 8.78569C13.0627 8.59764 12.9883 8.41702 12.8555 8.28383C12.7227 8.15065 12.5423 8.07568 12.3542 8.07568C12.166 8.07568 11.9855 8.15065 11.8527 8.28383C11.7199 8.41702 11.6455 8.59764 11.6459 8.78569Z" fill="#72767C"/>
<path fill-rule="evenodd" clip-rule="evenodd" d="M11.2992 11.1576C11.2988 11.3459 11.3732 11.5265 11.506 11.6597C11.6389 11.7929 11.8193 11.8677 12.0075 11.8677C12.1956 11.8677 12.376 11.7929 12.5088 11.6597C12.6416 11.5265 12.716 11.3459 12.7157 11.1576C12.716 10.9696 12.6416 10.789 12.5088 10.6558C12.376 10.5226 12.1956 10.4476 12.0075 10.4476C11.8193 10.4476 11.6388 10.5226 11.506 10.6558C11.3732 10.789 11.2988 10.9696 11.2992 11.1576Z" fill="#72767C"/>
<path fill-rule="evenodd" clip-rule="evenodd" d="M10.9517 13.5296C10.9513 13.7178 11.0257 13.8985 11.1585 14.0316C11.2913 14.1648 11.4718 14.2396 11.66 14.2396C11.8481 14.2396 12.0285 14.1648 12.1613 14.0316C12.2941 13.8985 12.3685 13.7178 12.3681 13.5296C12.3685 13.3415 12.2941 13.1609 12.1613 13.0277C12.0285 12.8945 11.848 12.8196 11.66 12.8196C11.4717 12.8196 11.2913 12.8945 11.1585 13.0277C11.0257 13.1609 10.9513 13.3415 10.9517 13.5296Z" fill="#72767C"/>
<path fill-rule="evenodd" clip-rule="evenodd" d="M13.5198 11.3578C13.5194 11.5461 13.5938 11.7267 13.7266 11.8599C13.8594 11.9931 14.0399 12.0679 14.2281 12.0679C14.4162 12.0679 14.5966 11.9931 14.7294 11.8599C14.8622 11.7267 14.9366 11.5461 14.9362 11.3578C14.9366 11.1698 14.8622 10.9892 14.7294 10.856C14.5966 10.7228 14.4162 10.6478 14.2281 10.6478C14.0399 10.6478 13.8594 10.7228 13.7266 10.856C13.5938 10.9892 13.5194 11.1698 13.5198 11.3578Z" fill="#72767C"/>
<path fill-rule="evenodd" clip-rule="evenodd" d="M13.4041 13.9296C13.4037 14.1179 13.4781 14.2985 13.6109 14.4317C13.7437 14.5649 13.9241 14.6396 14.1124 14.6396C14.3004 14.6396 14.4809 14.5649 14.6137 14.4317C14.7465 14.2985 14.8209 14.1179 14.8205 13.9296C14.8209 13.7416 14.7465 13.5609 14.6137 13.4278C14.4809 13.2946 14.3004 13.2196 14.1124 13.2196C13.9241 13.2196 13.7437 13.2946 13.6109 13.4278C13.4781 13.5609 13.4037 13.7416 13.4041 13.9296Z" fill="#72767C"/>
<path fill-rule="evenodd" clip-rule="evenodd" d="M11.5426 15.3983C11.3996 15.3979 11.2582 15.4699 11.1741 15.5856L8.08705 19.8388C8.03106 19.9158 8 20.0109 8 20.1061V23.8894C8 24.0085 8.04911 24.1268 8.13319 24.2109C8.21745 24.2951 8.33557 24.3441 8.45462 24.3441H22.2224C22.3414 24.3441 22.4597 24.295 22.5438 24.2109C22.6281 24.1266 22.677 24.0085 22.677 23.8894V20.1061C22.677 20.0109 22.6459 19.9158 22.5899 19.8388L19.5029 15.5856C19.4188 15.4699 19.2774 15.3979 19.1344 15.3983H11.5426ZM11.6466 15.8637H19.0305C19.1187 15.8641 19.205 15.9095 19.2552 15.9818L20.6522 17.9748C20.7098 18.057 20.7173 18.1718 20.6708 18.2607C20.6244 18.3498 20.526 18.4093 20.4256 18.409H10.2512C10.1508 18.4093 10.0525 18.3496 10.006 18.2607C9.95955 18.1716 9.96699 18.057 10.0247 17.9748L11.4216 15.9818C11.4718 15.9095 11.5582 15.8641 11.6463 15.8637H11.6466ZM10.4042 20.3221C11.0062 20.3221 11.4939 20.81 11.4939 21.4118C11.4939 22.0137 11.006 22.5015 10.4042 22.5015C9.80226 22.5015 9.31454 22.0135 9.31454 21.4118C9.31454 20.8098 9.80245 20.3221 10.4042 20.3221ZM20.2729 20.3221C20.8748 20.3221 21.3626 20.81 21.3626 21.4118C21.3626 22.0137 20.8746 22.5015 20.2729 22.5015C19.6709 22.5015 19.1823 22.0135 19.1823 21.4118C19.1823 20.8098 19.671 20.3221 20.2729 20.3221Z" fill="#72767C"/>
<path fill-rule="evenodd" clip-rule="evenodd" d="M9.53735 23.8215V26.3578C9.53735 26.7137 9.832 26.9999 10.1981 26.9999H11.2381C11.6043 26.9999 11.8988 26.7137 11.8988 26.3578V23.8215H9.53735ZM18.956 23.8215V26.3578C18.956 26.7137 19.2507 26.9999 19.6167 26.9999H20.6558C21.0221 26.9999 21.3175 26.7137 21.3175 26.3578V23.8215H18.956Z" fill="#72767C"/>
<path fill-rule="evenodd" clip-rule="evenodd" d="M20.5323 17.0907L21.5213 18.4588L21.8171 18.414C22.2231 18.3524 22.5481 17.9932 22.4466 17.6311C22.2345 16.8747 21.1856 17.0907 20.5321 17.0907L20.5323 17.0907Z" fill="#72767C"/>
<path fill-rule="evenodd" clip-rule="evenodd" d="M10.1451 17.0907L9.15605 18.4588L8.86029 18.414C8.45422 18.3524 8.12923 17.9932 8.23081 17.6311C8.44286 16.8747 9.49177 17.0907 10.1453 17.0907L10.1451 17.0907Z" fill="#72767C"/>
</svg>
