<svg width="24" height="24" viewBox="0 0 24 24" fill="none" xmlns="http://www.w3.org/2000/svg">
<path d="M11.0282 2C9.71497 2 8.41461 2.25866 7.20135 2.7612C5.9881 3.26375 4.8857 4.00035 3.95712 4.92893C2.08175 6.8043 1.02819 9.34784 1.02819 12C1.01944 14.3091 1.81898 16.5485 3.28819 18.33L1.28819 20.33C1.14943 20.4706 1.05543 20.6492 1.01806 20.8432C0.980684 21.0372 1.00161 21.2379 1.07819 21.42C1.16124 21.5999 1.29589 21.7511 1.46503 21.8544C1.63418 21.9577 1.83019 22.0083 2.02819 22H11.0282C13.6804 22 16.2239 20.9464 18.0993 19.0711C19.9746 17.1957 21.0282 14.6522 21.0282 12C21.0282 9.34784 19.9746 6.8043 18.0993 4.92893C16.2239 3.05357 13.6804 2 11.0282 2ZM11.0282 20H4.43819L5.36819 19.07C5.55444 18.8826 5.65898 18.6292 5.65898 18.365C5.65898 18.1008 5.55444 17.8474 5.36819 17.66C4.05877 16.352 3.24336 14.6305 3.06088 12.7888C2.87839 10.947 3.34013 9.09901 4.36741 7.55952C5.3947 6.02004 6.92398 4.88436 8.6947 4.34597C10.4654 3.80759 12.368 3.8998 14.0784 4.60691C15.7888 5.31402 17.201 6.59227 18.0746 8.22389C18.9482 9.85551 19.2291 11.7395 18.8693 13.555C18.5096 15.3705 17.5315 17.005 16.1017 18.1802C14.672 19.3554 12.8789 19.9985 11.0282 20Z" fill="#969696"/>
</svg>
