<svg width="24" height="24" viewBox="0 0 24 24" fill="none" xmlns="http://www.w3.org/2000/svg">
<path d="M21.708 15.5779L17.188 11.0679C17.2826 10.6073 17.3295 10.1382 17.328 9.66793C17.3277 8.37858 17.0023 7.11013 16.3819 5.97981C15.7616 4.8495 14.8663 3.89381 13.7789 3.20107C12.6915 2.50834 11.4469 2.10092 10.1603 2.01647C8.87377 1.93202 7.58666 2.17328 6.418 2.71793C6.26994 2.78557 6.14062 2.88833 6.04129 3.01729C5.94196 3.14625 5.87561 3.29751 5.848 3.45793C5.8205 3.61632 5.83159 3.779 5.88034 3.93219C5.92908 4.08538 6.01403 4.22456 6.128 4.33793L10.478 8.67793L8.678 10.4779L4.338 6.12793C4.22367 6.01573 4.08405 5.93264 3.93091 5.88566C3.77777 5.83867 3.61558 5.82916 3.458 5.85793C3.29858 5.88453 3.14798 5.94936 3.01911 6.04689C2.89023 6.14442 2.78691 6.27174 2.718 6.41793C2.17153 7.59044 1.93048 8.88211 2.01729 10.1728C2.1041 11.4635 2.51595 12.7112 3.21451 13.8C3.91308 14.8888 4.87567 15.7832 6.01274 16.4C7.14981 17.0168 8.42442 17.336 9.718 17.3279C10.1882 17.3294 10.6574 17.2825 11.118 17.1879L15.628 21.7079C15.721 21.8017 15.8316 21.8761 15.9534 21.9268C16.0753 21.9776 16.206 22.0037 16.338 22.0037C16.47 22.0037 16.6007 21.9776 16.7226 21.9268C16.8444 21.8761 16.955 21.8017 17.048 21.7079C17.1417 21.615 17.2161 21.5044 17.2669 21.3825C17.3177 21.2606 17.3438 21.1299 17.3438 20.9979C17.3438 20.8659 17.3177 20.7352 17.2669 20.6134C17.2161 20.4915 17.1417 20.3809 17.048 20.2879L12.148 15.3879C12.0255 15.2663 11.8737 15.1784 11.7072 15.1329C11.5408 15.0873 11.3653 15.0856 11.198 15.1279C10.7152 15.2572 10.2178 15.3244 9.718 15.3279C8.97005 15.3345 8.22818 15.1931 7.53514 14.9117C6.8421 14.6303 6.21157 14.2146 5.67989 13.6885C5.14821 13.1624 4.72587 12.5363 4.43722 11.8463C4.14856 11.1562 3.99929 10.4159 3.998 9.66793C3.9967 9.33295 4.02346 8.99845 4.078 8.66793L7.998 12.5979C8.09096 12.6917 8.20156 12.7661 8.32342 12.8168C8.44528 12.8676 8.57599 12.8937 8.708 12.8937C8.84001 12.8937 8.97072 12.8676 9.09258 12.8168C9.21444 12.7661 9.32504 12.6917 9.418 12.5979L12.598 9.38793C12.7782 9.20146 12.879 8.95227 12.879 8.69293C12.879 8.43359 12.7782 8.1844 12.598 7.99793L8.708 4.07793C9.03858 4.02394 9.37304 3.99719 9.708 3.99793C11.21 4.00058 12.6497 4.59912 13.7108 5.66217C14.772 6.72521 15.368 8.16588 15.368 9.66793C15.3645 10.1678 15.2973 10.6651 15.168 11.1479C15.1257 11.3153 15.1274 11.4907 15.1729 11.6572C15.2185 11.8236 15.3064 11.9755 15.428 12.0979L20.328 16.9979C20.5163 17.1862 20.7717 17.292 21.038 17.292C21.3043 17.292 21.5597 17.1862 21.748 16.9979C21.9363 16.8096 22.0421 16.5542 22.0421 16.2879C22.0421 16.0216 21.9363 15.7662 21.748 15.5779H21.708Z" fill="#72767C"/>
</svg>
