<svg width="24" height="24" viewBox="0 0 24 24" fill="none" xmlns="http://www.w3.org/2000/svg">
<path fill-rule="evenodd" clip-rule="evenodd" d="M2.34259 6.34457C2.60737 4.80909 3.8292 3.68036 5.37128 3.44599C6.84884 3.22142 8.87582 3 11.1245 3C13.3731 3 15.4001 3.22142 16.8777 3.44599C18.4197 3.68036 19.6416 4.80908 19.9063 6.34457C20.0909 7.41473 20.2489 8.77417 20.2489 10.2915C20.2489 11.8088 20.0909 13.1682 19.9063 14.2384C19.6416 15.7739 18.4197 16.9026 16.8777 17.137C15.5259 17.3424 13.7144 17.5452 11.6939 17.5783L6.11397 20.8719C5.50572 21.2309 4.73734 20.7929 4.73734 20.0872V16.985C3.5024 16.5748 2.56988 15.5565 2.34259 14.2384C2.15805 13.1682 2 11.8088 2 10.2915C2 8.77417 2.15805 7.41473 2.34259 6.34457ZM5.64979 8.46861C5.64979 7.96524 6.0583 7.55718 6.56223 7.55718H15.6867C16.1906 7.55718 16.5991 7.96524 16.5991 8.46861C16.5991 8.97198 16.1906 9.38004 15.6867 9.38004H6.56223C6.0583 9.38004 5.64979 8.97198 5.64979 8.46861ZM5.64979 12.1144C5.64979 11.611 6.0583 11.2029 6.56223 11.2029H10.212C10.716 11.2029 11.1245 11.611 11.1245 12.1144C11.1245 12.6177 10.716 13.0258 10.212 13.0258H6.56223C6.0583 13.0258 5.64979 12.6177 5.64979 12.1144Z" fill="#A9ABAD"/>
</svg>
