<svg width="30" height="30" viewBox="0 0 30 30" fill="none" xmlns="http://www.w3.org/2000/svg">
<path d="M8.51627 10.6117L8.6703 10.7655L10.8061 8.62939L10.6524 8.47536C11.2479 7.04043 10.9638 5.32583 9.79659 4.15787C8.62916 2.99071 6.91449 2.70656 5.47883 3.30263L8.0656 5.88939L5.92976 8.02523L3.34327 5.43819C2.74718 6.87418 3.03182 8.58906 4.1993 9.75568C5.36673 10.9226 7.08141 11.2073 8.51626 10.6117L8.51627 10.6117Z" fill="#72767C"/>
<path d="M22.6977 8.68538L24.6399 8.04403L26.4552 4.91841L25.1452 3.60864L22.0199 5.42449L21.379 7.36676L19.7594 8.98592L21.078 10.3045L22.6977 8.68538Z" fill="#72767C"/>
<path d="M26.7608 24.562C27.3568 23.1262 27.0732 21.4116 25.9063 20.2442C24.7384 19.077 23.0235 18.7924 21.5886 19.3884L21.3546 19.155L19.2185 21.2909L19.4525 21.5248C18.8564 22.9594 19.1408 24.6748 20.3085 25.8417C21.4757 27.0089 23.1906 27.2936 24.6255 26.6975L22.039 24.1107L24.1751 21.9754L26.7608 24.562Z" fill="#72767C"/>
<path d="M20.0713 17.7913C20.2922 17.3989 20.4681 16.9777 20.5919 16.5351H22.0992V13.402H20.5919C20.4681 12.9592 20.2917 12.5384 20.0713 12.1458L21.137 11.0801L18.9218 8.86409L17.8561 9.93007C17.4632 9.7097 17.0422 9.53355 16.5994 9.40893V7.90247H13.4662V9.40893C13.0234 9.53355 12.6027 9.70996 12.2096 9.93007L11.1438 8.86409L8.92808 11.0801L9.9938 12.1458C9.77342 12.5387 9.59727 12.9597 9.47264 13.402H7.96619V16.5351H9.47264C9.59727 16.9782 9.77316 17.399 9.9938 17.7913L8.92808 18.8573L11.1438 21.073L12.2096 20.007C12.6027 20.2274 13.0234 20.4036 13.4662 20.5282V22.0346H16.5994V20.5282C17.0425 20.4036 17.4632 20.2272 17.8561 20.007L18.9218 21.073L21.137 18.8573L20.0713 17.7913ZM15.0323 18.2807C13.2032 18.2807 11.7201 16.7973 11.7201 14.9688C11.7201 13.1397 13.2035 11.6566 15.0323 11.6566C16.8619 11.6566 18.3445 13.1397 18.3445 14.9688C18.3448 16.7973 16.8619 18.2807 15.0323 18.2807Z" fill="#72767C"/>
<path d="M5.75408 26.9984L3 24.2439L8.41132 18.8334L11.1654 21.5879L5.75408 26.9984Z" fill="#72767C"/>
</svg>
