<svg width="24" height="24" viewBox="0 0 24 24" fill="none" xmlns="http://www.w3.org/2000/svg">
<path fill-rule="evenodd" clip-rule="evenodd" d="M6.70833 10.3679C7.09953 10.3679 7.41667 10.6847 7.41667 11.0755V11.783C7.41667 14.1276 9.31946 16.0283 11.6667 16.0283C14.0139 16.0283 15.9167 14.1276 15.9167 11.783V11.0755C15.9167 10.6847 16.2338 10.3679 16.625 10.3679C17.0162 10.3679 17.3333 10.6847 17.3333 11.0755V11.783C17.3333 14.6695 15.1703 17.0514 12.375 17.3996V19.566H14.5C14.8912 19.566 15.2083 19.8828 15.2083 20.2736C15.2083 20.6644 14.8912 20.9811 14.5 20.9811H12.375H10.9583H8.83333C8.44213 20.9811 8.125 20.6644 8.125 20.2736C8.125 19.8828 8.44213 19.566 8.83333 19.566H10.9583V17.3996C8.16303 17.0514 6 14.6695 6 11.783V11.0755C6 10.6847 6.31713 10.3679 6.70833 10.3679Z" fill="#A9ABAD"/>
<path fill-rule="evenodd" clip-rule="evenodd" d="M13.0828 11.783V6.83019C13.0828 6.04866 12.4485 5.4151 11.6661 5.4151C10.8837 5.4151 10.2494 6.04866 10.2494 6.83019V11.783C10.2494 12.5646 10.8837 13.1981 11.6661 13.1981C12.4485 13.1981 13.0828 12.5646 13.0828 11.783ZM11.6661 4C10.1013 4 8.83276 5.26712 8.83276 6.83019V11.783C8.83276 13.3461 10.1013 14.6132 11.6661 14.6132C13.2309 14.6132 14.4994 13.3461 14.4994 11.783V6.83019C14.4994 5.26712 13.2309 4 11.6661 4Z" fill="#A9ABAD"/>
</svg>
