<svg width="20" height="20" viewBox="0 0 20 20" fill="none" xmlns="http://www.w3.org/2000/svg">
<path d="M10.5892 7.25592L12.744 9.41074C13.0695 9.73618 13.0695 10.2638 12.744 10.5893L9.15856 14.1747C8.61105 14.7222 7.98989 15.1908 7.31303 15.5668L3.38291 17.7502C2.65026 18.1572 1.84272 17.3497 2.24974 16.617L4.43314 12.6869C4.80918 12.01 5.27771 11.3889 5.82523 10.8414L9.41069 7.25592C9.73613 6.93048 10.2638 6.93048 10.5892 7.25592Z" fill="#A9ABAD"/>
<path d="M15.8333 7.50004L16.4583 8.12508C16.8035 8.47026 16.8035 9.0299 16.4583 9.37508C16.1131 9.72026 15.5535 9.72026 15.2083 9.37508L10.625 4.79175C10.2798 4.44657 10.2798 3.88693 10.625 3.54175C10.9702 3.19657 11.5298 3.19657 11.875 3.54175L12.4999 4.16671L14.1666 2.49999C15.0871 1.57951 16.5795 1.57951 17.5 2.49999C18.4205 3.42046 18.4205 4.91284 17.5 5.83332L15.8333 7.50004Z" fill="#A9ABAD"/>
</svg>
