<svg width="24" height="24" viewBox="0 0 24 24" fill="none" xmlns="http://www.w3.org/2000/svg">
<path d="M3 22C3 21.4477 3.44772 21 4 21H20C20.5523 21 21 21.4477 21 22C21 22.5523 20.5523 23 20 23H4C3.44772 23 3 22.5523 3 22Z" fill="#258C60"/>
<path fill-rule="evenodd" clip-rule="evenodd" d="M16.7071 3.12126C16.3166 2.73074 15.6834 2.73074 15.2929 3.12126L14.4142 3.99991L18 7.5857L18.8787 6.70705C19.2692 6.31652 19.2692 5.68336 18.8787 5.29284L16.7071 3.12126ZM6.91425 11.4999L13 5.41412L16.5858 8.99991L10.5 15.0857L6.91425 11.4999ZM5.50003 12.9141L5 13.4142V16.9999H8.58579L9.08582 16.4999L5.50003 12.9141ZM13.8787 1.70705C15.0503 0.535476 16.9497 0.535476 18.1213 1.70705L20.2929 3.87862C21.4645 5.0502 21.4645 6.94969 20.2929 8.12126L10 18.4142C9.62493 18.7892 9.11622 18.9999 8.58579 18.9999H5C3.89543 18.9999 3 18.1045 3 16.9999V13.4142C3 12.8837 3.21071 12.375 3.58579 11.9999L13.8787 1.70705Z" fill="#258C60"/>
</svg>
