<svg width="24" height="24" viewBox="0 0 24 24" fill="none" xmlns="http://www.w3.org/2000/svg">
<path d="M14.0058 11.0058H13.0058V10.0058C13.0058 9.74058 12.9004 9.48623 12.7129 9.29869C12.5254 9.11116 12.271 9.0058 12.0058 9.0058C11.7406 9.0058 11.4862 9.11116 11.2987 9.29869C11.1112 9.48623 11.0058 9.74058 11.0058 10.0058V11.0058H10.0058C9.74058 11.0058 9.48623 11.1112 9.29869 11.2987C9.11116 11.4862 9.0058 11.7406 9.0058 12.0058C9.0058 12.271 9.11116 12.5254 9.29869 12.7129C9.48623 12.9004 9.74058 13.0058 10.0058 13.0058H11.0058V14.0058C11.0058 14.271 11.1112 14.5254 11.2987 14.7129C11.4862 14.9004 11.7406 15.0058 12.0058 15.0058C12.271 15.0058 12.5254 14.9004 12.7129 14.7129C12.9004 14.5254 13.0058 14.271 13.0058 14.0058V13.0058H14.0058C14.271 13.0058 14.5254 12.9004 14.7129 12.7129C14.9004 12.5254 15.0058 12.271 15.0058 12.0058C15.0058 11.7406 14.9004 11.4862 14.7129 11.2987C14.5254 11.1112 14.271 11.0058 14.0058 11.0058ZM21.7158 11.2958L19.3658 9.0058V5.6458C19.3658 5.38058 19.2604 5.12623 19.0729 4.93869C18.8854 4.75116 18.631 4.6458 18.3658 4.6458H15.0558L12.7158 2.2958C12.6228 2.20207 12.5122 2.12768 12.3904 2.07691C12.2685 2.02614 12.1378 2 12.0058 2C11.8738 2 11.7431 2.02614 11.6212 2.07691C11.4994 2.12768 11.3888 2.20207 11.2958 2.2958L9.0058 4.6458H5.6458C5.38058 4.6458 5.12623 4.75116 4.93869 4.93869C4.75116 5.12623 4.6458 5.38058 4.6458 5.6458V9.0058L2.2958 11.2958C2.20207 11.3888 2.12768 11.4994 2.07691 11.6212C2.02614 11.7431 2 11.8738 2 12.0058C2 12.1378 2.02614 12.2685 2.07691 12.3904C2.12768 12.5122 2.20207 12.6228 2.2958 12.7158L4.6458 15.0558V18.3658C4.6458 18.631 4.75116 18.8854 4.93869 19.0729C5.12623 19.2604 5.38058 19.3658 5.6458 19.3658H9.0058L11.3458 21.7158C11.4388 21.8095 11.5494 21.8839 11.6712 21.9347C11.7931 21.9855 11.9238 22.0116 12.0558 22.0116C12.1878 22.0116 12.3185 21.9855 12.4404 21.9347C12.5622 21.8839 12.6728 21.8095 12.7658 21.7158L15.1058 19.3658H18.4158C18.681 19.3658 18.9354 19.2604 19.1229 19.0729C19.3104 18.8854 19.4158 18.631 19.4158 18.3658V15.0558L21.7658 12.7158C21.8563 12.6196 21.9269 12.5064 21.9734 12.3827C22.0199 12.2591 22.0415 12.1274 22.0369 11.9954C22.0322 11.8633 22.0014 11.7335 21.9463 11.6135C21.8912 11.4934 21.8129 11.3854 21.7158 11.2958ZM17.6658 13.9358C17.5713 14.0284 17.4961 14.1389 17.4446 14.2607C17.3931 14.3826 17.3663 14.5135 17.3658 14.6458V17.3658H14.6458C14.5135 17.3663 14.3826 17.3931 14.2607 17.4446C14.1389 17.4961 14.0284 17.5713 13.9358 17.6658L12.0058 19.5958L10.0758 17.6658C9.98318 17.5713 9.87274 17.4961 9.75086 17.4446C9.62899 17.3931 9.49811 17.3663 9.3658 17.3658H6.6458V14.6458C6.64525 14.5135 6.61845 14.3826 6.56695 14.2607C6.51546 14.1389 6.44029 14.0284 6.3458 13.9358L4.4158 12.0058L6.3458 10.0758C6.44029 9.98318 6.51546 9.87274 6.56695 9.75086C6.61845 9.62899 6.64525 9.49811 6.6458 9.3658V6.6458H9.3658C9.49811 6.64525 9.62899 6.61845 9.75086 6.56695C9.87274 6.51546 9.98318 6.44029 10.0758 6.3458L12.0058 4.4158L13.9358 6.3458C14.0284 6.44029 14.1389 6.51546 14.2607 6.56695C14.3826 6.61845 14.5135 6.64525 14.6458 6.6458H17.3658V9.3658C17.3663 9.49811 17.3931 9.62899 17.4446 9.75086C17.4961 9.87274 17.5713 9.98318 17.6658 10.0758L19.5958 12.0058L17.6658 13.9358Z" fill="black"/>
</svg>
